<svg width="565" height="108" viewBox="0 0 565 108" fill="none" xmlns="http://www.w3.org/2000/svg">
<path d="M65.816 22.16C67.4373 21.9893 68.9307 21.8613 70.296 21.776C71.6613 21.6907 73.0693 21.648 74.52 21.648C78.616 21.392 82.6693 21.3067 86.68 21.392C90.6907 21.4773 94.744 21.9893 98.84 22.928C100.888 23.44 102.979 24.1653 105.112 25.104C107.843 26.384 109.72 28.1333 110.744 30.352C111.768 32.5707 111.811 34.96 110.872 37.52C110.445 38.9707 109.805 40.2933 108.952 41.488C108.099 42.5973 107.203 43.664 106.264 44.688C104.216 46.736 101.997 48.6133 99.608 50.32C97.304 51.9413 94.9147 53.4773 92.44 54.928C80.4933 62.096 67.3093 66.96 52.888 69.52C49.816 70.1173 46.7013 70.6293 43.544 71.056C40.472 71.3973 37.2293 71.3973 33.816 71.056C32.7067 70.9707 31.8533 71.3973 31.256 72.336C29.464 74.64 27.672 76.944 25.88 79.248C24.088 81.4667 22.296 83.728 20.504 86.032C18.0293 89.36 15.384 92.432 12.568 95.248C9.752 98.064 6.72267 100.752 3.48 103.312C3.05333 103.739 2.584 104.123 2.072 104.464C1.64533 104.805 1.048 105.147 0.28 105.488C0.450667 105.232 0.578667 105.019 0.664 104.848C0.834667 104.592 1.00533 104.336 1.176 104.08C4.16267 100.24 7.10667 96.4427 10.008 92.688C12.9947 88.9333 15.9387 85.136 18.84 81.296C20.376 79.4187 21.8693 77.5413 23.32 75.664C24.7707 73.7013 26.3493 71.6533 28.056 69.52C27.3733 69.4347 26.904 69.2213 26.648 68.88C25.1973 67.7707 24.3867 66.576 24.216 65.296C24.1307 64.016 24.6853 62.7787 25.88 61.584C27.0747 60.6453 28.312 59.8347 29.592 59.152C30.9573 58.4693 32.4507 58.0427 34.072 57.872C36.5467 57.5307 38.3387 56.336 39.448 54.288C42.4347 49.936 45.4213 45.584 48.408 41.232C51.48 36.88 54.5093 32.4853 57.496 28.048C57.5813 27.8773 57.7093 27.664 57.88 27.408C58.0507 27.152 58.2213 26.768 58.392 26.256C57.1973 26.512 56.088 26.6827 55.064 26.768C54.04 26.8533 53.1013 26.9813 52.248 27.152C44.1413 28.3467 36.1627 29.7547 28.312 31.376C20.5467 32.9973 12.696 34.7467 4.76 36.624C4.33333 36.7947 3.864 36.88 3.352 36.88C2.84 36.88 2.37067 36.88 1.944 36.88C1.51733 36.1973 1.38933 35.728 1.56 35.472C1.816 35.216 2.15733 34.96 2.584 34.704C3.352 34.448 4.07733 34.192 4.76 33.936C5.528 33.5947 6.38133 33.3387 7.32 33.168C12.44 31.9733 17.5173 30.8213 22.552 29.712C27.672 28.5173 32.8347 27.408 38.04 26.384C41.624 25.7013 45.208 25.104 48.792 24.592C52.376 23.9947 55.96 23.3973 59.544 22.8C60.2267 22.7147 60.696 22.5013 60.952 22.16C61.208 21.8187 61.464 21.4347 61.72 21.008C63.4267 18.2773 65.0907 15.5467 66.712 12.816C68.3333 10.0853 69.9547 7.39733 71.576 4.752C72.0027 4.24 72.344 3.72799 72.6 3.216C72.9413 2.61866 73.2827 2.02133 73.624 1.424C73.88 1.25333 74.0933 1.08266 74.264 0.911995C74.4347 0.655993 74.6907 0.485326 75.032 0.399994C75.544 0.229329 75.9707 0.271996 76.312 0.527992C76.824 0.869326 76.9947 1.296 76.824 1.808C76.824 2.23466 76.7387 2.61866 76.568 2.95999C76.3973 3.30133 76.2267 3.59999 76.056 3.856C74.52 6.75733 72.8987 9.61599 71.192 12.432C69.5707 15.248 67.9067 18.1067 66.2 21.008C66.2 21.1787 66.072 21.5627 65.816 22.16ZM35.352 67.088C37.0587 67.2587 38.5947 67.344 39.96 67.344C41.3253 67.2587 42.7333 67.1307 44.184 66.96C49.2187 66.2773 54.168 65.3387 59.032 64.144C63.896 62.9493 68.632 61.456 73.24 59.664C78.104 57.7013 82.712 55.568 87.064 53.264C91.5013 50.8747 95.768 48.1013 99.864 44.944C101.315 43.8347 102.637 42.64 103.832 41.36C105.027 40.08 106.008 38.5867 106.776 36.88C108.824 32.528 107.245 29.4133 102.04 27.536C101.869 27.4507 101.656 27.408 101.4 27.408C101.229 27.3227 101.059 27.2373 100.888 27.152C96.024 25.7013 91.3307 24.976 86.808 24.976C83.5653 24.976 80.28 25.0613 76.952 25.232C73.624 25.3173 70.2533 25.36 66.84 25.36C64.6213 25.36 62.9573 26.384 61.848 28.432C58.6053 33.808 55.2773 39.0987 51.864 44.304C48.4507 49.424 44.824 54.544 40.984 59.664C40.0453 60.7733 39.1067 61.968 38.168 63.248C37.2293 64.4427 36.2907 65.7227 35.352 67.088ZM33.048 62.096C32.1093 62.5227 31.2133 62.992 30.36 63.504C29.592 63.9307 28.952 64.6133 28.44 65.552C28.7813 65.7227 29.08 65.8933 29.336 66.064C29.592 66.2347 29.9333 66.448 30.36 66.704C30.7867 65.936 31.256 65.2107 31.768 64.528C32.3653 63.8453 32.92 63.1627 33.432 62.48L33.048 62.096ZM128.635 63.12C127.611 63.0347 126.8 62.7787 126.203 62.352C125.606 61.9253 125.094 61.3707 124.667 60.688C124.326 60.0053 124.027 59.28 123.771 58.512C123.6 57.744 123.43 56.976 123.259 56.208C122.747 55.0133 122.022 54.416 121.083 54.416C120.144 54.416 119.163 54.7147 118.139 55.312C117.2 55.824 116.304 56.5067 115.451 57.36C114.598 58.2133 113.915 58.8533 113.403 59.28C110.416 61.7547 108.112 64.528 106.491 67.6C106.235 68.2827 105.851 68.8373 105.339 69.264C104.742 69.6907 104.187 69.9893 103.675 70.16C103.163 70.2453 102.736 70.16 102.395 69.904C101.968 69.648 101.755 69.136 101.755 68.368C101.755 67.9413 101.84 67.6 102.011 67.344C102.182 67.088 102.352 66.7893 102.523 66.448C104.144 63.5467 105.723 60.6453 107.259 57.744C108.795 54.8427 110.374 51.9413 111.995 49.04C112.422 48.1867 112.976 47.4187 113.659 46.736C113.83 46.5653 114.043 46.4373 114.299 46.352C114.64 46.2667 114.896 46.3093 115.067 46.48C115.664 46.8213 115.878 47.2907 115.707 47.888C115.707 48.4853 115.536 49.2107 115.195 50.064C114.598 51.1733 114.043 52.2827 113.531 53.392C113.019 54.5013 112.55 55.6533 112.123 56.848C112.806 56.336 113.232 55.9947 113.403 55.824C114.256 55.1413 115.024 54.5013 115.707 53.904C116.475 53.2213 117.243 52.624 118.011 52.112C119.035 51.2587 120.187 50.7467 121.467 50.576C124.027 49.9787 125.691 50.9173 126.459 53.392C126.63 54.0747 126.758 54.7147 126.843 55.312C126.928 55.9093 127.056 56.5067 127.227 57.104C127.398 58.0427 127.696 58.6827 128.123 59.024C128.55 59.28 129.275 59.3653 130.299 59.28C130.726 59.28 131.152 59.28 131.579 59.28C132.091 59.1947 132.56 59.152 132.987 59.152C134.182 59.0667 134.992 59.2373 135.419 59.664C135.846 60.0907 135.888 60.6027 135.547 61.2C135.206 61.712 134.438 62.1813 133.243 62.608C132.134 63.0347 130.598 63.2053 128.635 63.12ZM159.847 59.024C160.274 58.8533 160.658 58.7253 160.999 58.64C161.34 58.4693 161.724 58.2987 162.151 58.128C163.175 57.9573 163.9 58.256 164.327 59.024C164.754 60.048 164.498 60.7733 163.559 61.2C160.402 62.8213 157.116 64.0587 153.703 64.912C150.29 65.7653 146.876 66.2773 143.463 66.448C142.268 66.5333 140.988 66.5333 139.623 66.448C138.343 66.3627 137.148 66.064 136.039 65.552C135.015 65.04 134.247 64.3147 133.735 63.376C133.223 62.352 133.18 60.9867 133.607 59.28C134.204 57.5733 134.759 56.3787 135.271 55.696C135.783 55.0133 136.764 54.288 138.215 53.52C139.751 52.8373 141.33 52.368 142.951 52.112C144.658 51.7707 146.279 51.6 147.815 51.6C149.266 51.7707 150.119 52.496 150.375 53.776C150.631 55.1413 150.162 56.1653 148.967 56.848C148.114 57.36 147.218 57.8293 146.279 58.256C145.34 58.5973 144.359 58.9387 143.335 59.28C142.567 59.4507 141.756 59.5787 140.903 59.664C140.05 59.7493 139.196 59.792 138.343 59.792C137.063 59.792 136.338 60.0907 136.167 60.688C136.082 61.2 136.338 61.7547 136.935 62.352C137.788 63.2053 139.282 63.6747 141.415 63.76C143.548 63.76 145.81 63.5893 148.199 63.248C150.674 62.8213 152.978 62.224 155.111 61.456C157.33 60.688 158.908 59.8773 159.847 59.024ZM146.919 55.312C147.516 54.544 147.516 54.16 146.919 54.16C146.407 54.0747 145.596 54.2027 144.487 54.544C143.463 54.8853 142.268 55.3973 140.903 56.08C139.538 56.7627 138.343 57.4453 137.319 58.128C138.599 58.2987 140.263 58.128 142.311 57.616C144.359 57.0187 145.895 56.2507 146.919 55.312ZM179.542 58C180.225 58.3413 180.822 58.4267 181.334 58.256C181.846 58 182.358 57.744 182.87 57.488C184.662 56.464 186.411 55.4827 188.118 54.544C189.825 53.52 191.574 52.5387 193.366 51.6C194.049 51.1733 194.774 50.832 195.542 50.576C196.395 50.2347 197.206 49.9787 197.974 49.808C200.619 49.2107 202.155 50.2347 202.582 52.88C202.923 54.416 202.966 56.0373 202.71 57.744C202.539 59.7067 202.838 60.944 203.606 61.456C204.459 61.968 205.739 61.968 207.446 61.456C208.641 61.2 209.921 60.7733 211.286 60.176C212.651 59.5787 213.889 59.0667 214.998 58.64C216.022 58.2987 216.747 58.1707 217.174 58.256C217.686 58.256 218.027 58.4267 218.198 58.768C218.454 59.1947 218.454 59.7067 218.198 60.304C218.027 60.816 217.43 61.2853 216.406 61.712C214.785 62.6507 213.121 63.4613 211.414 64.144C209.793 64.8267 208.043 65.2533 206.166 65.424C201.643 65.936 199.297 63.888 199.126 59.28C199.126 58.768 199.126 58.2987 199.126 57.872C199.211 57.4453 199.254 56.976 199.254 56.464C199.254 54.672 199.169 53.392 198.998 52.624C198.913 51.856 198.017 52.0693 196.31 53.264C194.603 54.2027 192.726 55.3547 190.678 56.72C188.715 58.0853 186.881 59.2373 185.174 60.176C184.065 60.944 182.785 61.456 181.334 61.712C178.774 62.48 177.025 61.4987 176.086 58.768C175.83 58.0853 175.617 57.488 175.446 56.976C175.361 56.464 175.233 56.08 175.062 55.824C174.977 55.568 174.763 55.5253 174.422 55.696C174.081 55.7813 173.526 56.08 172.758 56.592C171.051 57.872 169.345 59.4507 167.638 61.328C165.931 63.2053 164.225 64.8267 162.518 66.192C162.091 66.5333 161.707 66.8747 161.366 67.216C161.025 67.472 160.641 67.728 160.214 67.984C159.446 68.24 158.806 68.1973 158.294 67.856C157.782 67.4293 157.611 66.7893 157.782 65.936C157.867 65.3387 158.166 64.656 158.678 63.888C159.617 61.9253 160.598 60.0053 161.622 58.128C162.561 56.2507 163.585 54.3307 164.694 52.368C164.779 52.112 164.865 51.856 164.95 51.6C165.121 51.2587 165.291 51.0027 165.462 50.832C165.718 50.6613 166.017 50.4907 166.358 50.32C166.699 50.1493 166.998 50.1493 167.254 50.32C167.851 50.4907 168.15 51.0027 168.15 51.856C167.979 52.2827 167.809 52.7093 167.638 53.136C167.553 53.4773 167.425 53.8613 167.254 54.288C167.083 54.6293 166.827 55.0987 166.486 55.696C166.23 56.2933 165.931 56.9333 165.59 57.616C165.249 58.2133 164.95 58.8533 164.694 59.536C164.438 60.1333 164.31 60.6027 164.31 60.944C164.651 60.688 165.078 60.304 165.59 59.792C166.102 59.28 166.614 58.768 167.126 58.256C167.723 57.6587 168.278 57.104 168.79 56.592C169.302 55.9947 169.771 55.568 170.198 55.312C170.71 54.8853 171.222 54.544 171.734 54.288C172.246 54.032 172.758 53.776 173.27 53.52C176.171 52.3253 178.134 53.264 179.158 56.336C179.243 56.592 179.286 56.8907 179.286 57.232C179.371 57.488 179.457 57.744 179.542 58ZM234.417 62.096C232.54 63.12 230.62 64.1013 228.657 65.04C226.78 65.9787 224.774 66.704 222.641 67.216C221.958 67.3013 221.276 67.3867 220.593 67.472C219.91 67.472 219.228 67.3867 218.545 67.216C217.35 67.0453 216.497 66.4907 215.985 65.552C215.388 64.6133 215.174 63.5893 215.345 62.48C215.345 61.7973 215.43 61.072 215.601 60.304C215.686 59.536 215.942 58.8533 216.369 58.256C217.308 56.72 218.161 55.0133 218.929 53.136C219.782 51.2587 220.764 49.5947 221.873 48.144C222.3 47.632 222.812 47.376 223.409 47.376C224.006 47.2907 224.518 47.4613 224.945 47.888C225.457 48.2293 225.756 48.784 225.841 49.552C225.926 50.2347 225.628 51.0027 224.945 51.856C224.092 53.2213 223.238 54.544 222.385 55.824C221.532 57.104 220.678 58.4693 219.825 59.92C218.972 61.712 218.588 63.0347 218.673 63.888C218.844 64.656 219.27 65.1253 219.953 65.296C220.721 65.4667 221.66 65.3813 222.769 65.04C223.878 64.6987 224.988 64.2293 226.097 63.632C227.292 63.0347 228.401 62.4373 229.425 61.84C230.449 61.1573 231.174 60.56 231.601 60.048C232.454 59.1093 233.222 58.64 233.905 58.64C234.588 58.5547 235.057 58.7253 235.313 59.152C235.654 59.4933 235.782 60.0053 235.697 60.688C235.612 61.2853 235.185 61.7547 234.417 62.096ZM231.345 37.904C232.028 37.904 232.54 38.1173 232.881 38.544C233.308 38.9707 233.436 39.4827 233.265 40.08C233.094 40.7627 232.625 41.488 231.857 42.256C231.089 43.024 230.278 43.664 229.425 44.176C228.23 44.8587 227.377 45.1147 226.865 44.944C226.438 44.7733 226.396 43.8773 226.737 42.256C226.908 41.232 227.334 40.2507 228.017 39.312C228.785 38.3733 229.894 37.904 231.345 37.904ZM262.166 60.56C260.886 61.6693 259.307 62.5653 257.43 63.248C255.638 63.9307 253.889 64.3147 252.182 64.4C250.561 64.4853 249.195 64.144 248.086 63.376C246.977 62.608 246.465 61.2853 246.55 59.408C246.55 59.2373 246.507 59.1093 246.422 59.024C246.422 58.8533 246.379 58.5973 246.294 58.256C245.611 58.6827 245.014 59.1093 244.502 59.536C243.99 59.9627 243.393 60.3893 242.71 60.816C241.771 61.4133 240.875 62.0533 240.022 62.736C239.169 63.3333 238.23 63.8453 237.206 64.272C236.353 64.6987 235.499 64.912 234.646 64.912C232.939 64.912 232.086 64.0587 232.086 62.352C232.086 61.584 232.214 60.8587 232.47 60.176C233.067 58.7253 233.835 57.4027 234.774 56.208C235.713 55.0133 236.651 53.8187 237.59 52.624C238.529 51.856 239.339 51.6853 240.022 52.112C240.705 52.7947 240.705 53.648 240.022 54.672C239.595 55.3547 239.126 55.9947 238.614 56.592C238.187 57.1893 237.718 57.8293 237.206 58.512C236.95 58.9387 236.523 59.664 235.926 60.688C236.438 60.432 236.822 60.304 237.078 60.304C237.419 60.2187 237.718 60.0907 237.974 59.92C239.425 58.7253 240.875 57.5733 242.326 56.464C243.862 55.2693 245.355 54.0747 246.806 52.88C247.147 52.7093 247.446 52.4533 247.702 52.112C248.043 51.7707 248.427 51.5147 248.854 51.344C249.11 51.1733 249.451 51.088 249.878 51.088C250.39 51.088 250.817 51.1733 251.158 51.344C252.182 51.7707 252.395 52.5813 251.798 53.776C251.627 54.3733 251.414 54.9707 251.158 55.568C250.987 56.08 250.817 56.592 250.646 57.104C250.219 58.7253 250.177 59.8347 250.518 60.432C250.945 61.0293 251.585 61.328 252.438 61.328C253.291 61.328 254.23 61.1573 255.254 60.816C256.278 60.4747 257.259 60.176 258.198 59.92C258.625 59.8347 259.179 59.664 259.862 59.408C260.63 59.0667 261.27 58.8533 261.782 58.768C262.379 58.6827 262.763 58.768 262.934 59.024C263.105 59.1947 262.849 59.7067 262.166 60.56ZM279.667 58C280.35 58.3413 280.947 58.4267 281.459 58.256C281.971 58 282.483 57.744 282.995 57.488C284.787 56.464 286.536 55.4827 288.243 54.544C289.95 53.52 291.699 52.5387 293.491 51.6C294.174 51.1733 294.899 50.832 295.667 50.576C296.52 50.2347 297.331 49.9787 298.099 49.808C300.744 49.2107 302.28 50.2347 302.707 52.88C303.048 54.416 303.091 56.0373 302.835 57.744C302.664 59.7067 302.963 60.944 303.731 61.456C304.584 61.968 305.864 61.968 307.571 61.456C308.766 61.2 310.046 60.7733 311.411 60.176C312.776 59.5787 314.014 59.0667 315.123 58.64C316.147 58.2987 316.872 58.1707 317.299 58.256C317.811 58.256 318.152 58.4267 318.323 58.768C318.579 59.1947 318.579 59.7067 318.323 60.304C318.152 60.816 317.555 61.2853 316.531 61.712C314.91 62.6507 313.246 63.4613 311.539 64.144C309.918 64.8267 308.168 65.2533 306.291 65.424C301.768 65.936 299.422 63.888 299.251 59.28C299.251 58.768 299.251 58.2987 299.251 57.872C299.336 57.4453 299.379 56.976 299.379 56.464C299.379 54.672 299.294 53.392 299.123 52.624C299.038 51.856 298.142 52.0693 296.435 53.264C294.728 54.2027 292.851 55.3547 290.803 56.72C288.84 58.0853 287.006 59.2373 285.299 60.176C284.19 60.944 282.91 61.456 281.459 61.712C278.899 62.48 277.15 61.4987 276.211 58.768C275.955 58.0853 275.742 57.488 275.571 56.976C275.486 56.464 275.358 56.08 275.187 55.824C275.102 55.568 274.888 55.5253 274.547 55.696C274.206 55.7813 273.651 56.08 272.883 56.592C271.176 57.872 269.47 59.4507 267.763 61.328C266.056 63.2053 264.35 64.8267 262.643 66.192C262.216 66.5333 261.832 66.8747 261.491 67.216C261.15 67.472 260.766 67.728 260.339 67.984C259.571 68.24 258.931 68.1973 258.419 67.856C257.907 67.4293 257.736 66.7893 257.907 65.936C257.992 65.3387 258.291 64.656 258.803 63.888C259.742 61.9253 260.723 60.0053 261.747 58.128C262.686 56.2507 263.71 54.3307 264.819 52.368C264.904 52.112 264.99 51.856 265.075 51.6C265.246 51.2587 265.416 51.0027 265.587 50.832C265.843 50.6613 266.142 50.4907 266.483 50.32C266.824 50.1493 267.123 50.1493 267.379 50.32C267.976 50.4907 268.275 51.0027 268.275 51.856C268.104 52.2827 267.934 52.7093 267.763 53.136C267.678 53.4773 267.55 53.8613 267.379 54.288C267.208 54.6293 266.952 55.0987 266.611 55.696C266.355 56.2933 266.056 56.9333 265.715 57.616C265.374 58.2133 265.075 58.8533 264.819 59.536C264.563 60.1333 264.435 60.6027 264.435 60.944C264.776 60.688 265.203 60.304 265.715 59.792C266.227 59.28 266.739 58.768 267.251 58.256C267.848 57.6587 268.403 57.104 268.915 56.592C269.427 55.9947 269.896 55.568 270.323 55.312C270.835 54.8853 271.347 54.544 271.859 54.288C272.371 54.032 272.883 53.776 273.395 53.52C276.296 52.3253 278.259 53.264 279.283 56.336C279.368 56.592 279.411 56.8907 279.411 57.232C279.496 57.488 279.582 57.744 279.667 58ZM356.076 102.672C356.588 101.392 357.228 100.283 357.996 99.344C358.764 98.32 359.532 97.2107 360.3 96.016C364.14 89.616 367.98 83.3013 371.82 77.072C375.66 70.8427 379.543 64.5707 383.468 58.256C387.137 52.368 390.892 46.5227 394.732 40.72C398.572 34.9173 402.583 29.2427 406.764 23.696C407.02 23.2693 407.276 22.8853 407.532 22.544C407.788 22.2027 408.044 21.8187 408.3 21.392C407.788 21.2213 407.489 21.136 407.404 21.136C401.26 21.0507 395.159 20.9653 389.1 20.88C383.127 20.7947 377.068 20.6667 370.924 20.496C367.084 20.4107 363.372 20.5387 359.788 20.88C356.204 21.136 352.492 21.2213 348.652 21.136C347.287 21.2213 346.348 21.0507 345.836 20.624C345.239 20.1973 345.025 19.728 345.196 19.216C345.281 18.704 345.665 18.2347 346.348 17.808C347.031 17.3813 347.927 17.168 349.036 17.168C353.303 17.2533 357.569 17.3387 361.836 17.424C366.103 17.5093 370.327 17.5947 374.508 17.68C382.017 17.936 389.484 18.064 396.908 18.064C398.956 18.1493 400.961 18.2347 402.924 18.32C404.972 18.32 407.02 18.32 409.068 18.32C410.263 18.4053 411.244 18.0213 412.012 17.168C412.524 16.144 413.164 15.3333 413.932 14.736C414.615 14.224 415.255 14.1387 415.852 14.48C416.108 14.6507 416.236 14.9067 416.236 15.248C416.236 15.5893 416.151 15.888 415.98 16.144C415.724 16.8267 415.383 17.4667 414.956 18.064C415.383 18.2347 415.895 18.32 416.492 18.32C422.209 18.32 427.927 18.32 433.644 18.32C439.361 18.2347 445.079 18.192 450.796 18.192C455.233 18.1067 459.713 17.8933 464.236 17.552C468.759 17.1253 473.281 16.912 477.804 16.912C479.425 16.912 480.663 17.1253 481.516 17.552C482.455 17.9787 482.924 18.4907 482.924 19.088C482.924 19.6 482.497 20.112 481.644 20.624C480.876 21.136 479.639 21.4347 477.932 21.52C474.689 21.6053 471.319 21.5627 467.82 21.392C464.321 21.2213 460.908 21.136 457.58 21.136H414.188C413.505 21.136 412.951 21.3067 412.524 21.648C412.183 21.904 411.841 22.2453 411.5 22.672C408.684 26.9387 405.825 31.12 402.924 35.216C400.108 39.2267 397.335 43.408 394.604 47.76C390.081 54.672 385.687 61.584 381.42 68.496C377.153 75.3227 372.844 82.192 368.492 89.104C366.956 91.5787 365.463 94.3093 364.012 97.296C362.647 100.197 361.239 102.885 359.788 105.36C359.361 105.957 358.807 106.384 358.124 106.64C357.441 106.896 356.844 106.939 356.332 106.768C355.82 106.597 355.479 106.171 355.308 105.488C355.137 104.805 355.393 103.867 356.076 102.672ZM429.885 63.12C428.861 63.0347 428.05 62.7787 427.453 62.352C426.856 61.9253 426.344 61.3707 425.917 60.688C425.576 60.0053 425.277 59.28 425.021 58.512C424.85 57.744 424.68 56.976 424.509 56.208C423.997 55.0133 423.272 54.416 422.333 54.416C421.394 54.416 420.413 54.7147 419.389 55.312C418.45 55.824 417.554 56.5067 416.701 57.36C415.848 58.2133 415.165 58.8533 414.653 59.28C411.666 61.7547 409.362 64.528 407.741 67.6C407.485 68.2827 407.101 68.8373 406.589 69.264C405.992 69.6907 405.437 69.9893 404.925 70.16C404.413 70.2453 403.986 70.16 403.645 69.904C403.218 69.648 403.005 69.136 403.005 68.368C403.005 67.9413 403.09 67.6 403.261 67.344C403.432 67.088 403.602 66.7893 403.773 66.448C405.394 63.5467 406.973 60.6453 408.509 57.744C410.045 54.8427 411.624 51.9413 413.245 49.04C413.672 48.1867 414.226 47.4187 414.909 46.736C415.08 46.5653 415.293 46.4373 415.549 46.352C415.89 46.2667 416.146 46.3093 416.317 46.48C416.914 46.8213 417.128 47.2907 416.957 47.888C416.957 48.4853 416.786 49.2107 416.445 50.064C415.848 51.1733 415.293 52.2827 414.781 53.392C414.269 54.5013 413.8 55.6533 413.373 56.848C414.056 56.336 414.482 55.9947 414.653 55.824C415.506 55.1413 416.274 54.5013 416.957 53.904C417.725 53.2213 418.493 52.624 419.261 52.112C420.285 51.2587 421.437 50.7467 422.717 50.576C425.277 49.9787 426.941 50.9173 427.709 53.392C427.88 54.0747 428.008 54.7147 428.093 55.312C428.178 55.9093 428.306 56.5067 428.477 57.104C428.648 58.0427 428.946 58.6827 429.373 59.024C429.8 59.28 430.525 59.3653 431.549 59.28C431.976 59.28 432.402 59.28 432.829 59.28C433.341 59.1947 433.81 59.152 434.237 59.152C435.432 59.0667 436.242 59.2373 436.669 59.664C437.096 60.0907 437.138 60.6027 436.797 61.2C436.456 61.712 435.688 62.1813 434.493 62.608C433.384 63.0347 431.848 63.2053 429.885 63.12ZM470.569 60.688C469.63 61.6267 468.18 62.608 466.217 63.632C464.34 64.656 462.42 65.3813 460.457 65.808C458.58 66.2347 456.916 66.192 455.465 65.68C454.014 65.168 453.289 63.8027 453.289 61.584C453.289 60.9013 453.332 60.2187 453.417 59.536C453.502 58.768 453.63 57.9573 453.801 57.104C451.582 58.4693 449.406 59.8347 447.273 61.2C445.225 62.48 443.092 63.7173 440.873 64.912C440.361 65.3387 439.764 65.5947 439.081 65.68C438.484 65.7653 437.886 65.8507 437.289 65.936C435.412 66.192 434.089 65.6373 433.321 64.272C432.553 62.9067 432.681 61.4987 433.705 60.048C434.132 59.536 434.516 59.0667 434.857 58.64C435.198 58.2133 435.625 57.7867 436.137 57.36C438.356 55.3973 440.788 53.9467 443.433 53.008C446.078 52.0693 448.937 51.728 452.009 51.984C453.118 52.1547 454.014 51.8133 454.697 50.96C455.294 50.3627 455.849 49.7653 456.361 49.168C456.958 48.5707 457.556 47.9733 458.153 47.376C458.324 47.12 458.537 46.864 458.793 46.608C459.049 46.352 459.305 46.1813 459.561 46.096C459.817 46.0107 460.116 45.968 460.457 45.968C460.884 45.968 461.225 46.0533 461.481 46.224C461.908 46.8213 462.078 47.4613 461.993 48.144C461.908 48.8267 461.566 49.68 460.969 50.704C460.713 51.216 460.201 52.2827 459.433 53.904C458.665 55.44 458.068 56.976 457.641 58.512C457.3 60.048 457.3 61.328 457.641 62.352C457.982 63.2907 459.134 63.4613 461.097 62.864C462.121 62.608 463.23 62.1813 464.425 61.584C465.62 60.9013 466.814 60.2613 468.009 59.664C468.35 59.4933 468.692 59.3227 469.033 59.152C469.374 58.896 469.758 58.8107 470.185 58.896C470.612 59.0667 470.91 59.3653 471.081 59.792C471.337 60.1333 471.166 60.432 470.569 60.688ZM436.905 62.224C439.38 61.7973 441.982 60.8587 444.713 59.408C447.444 57.872 449.662 56.2507 451.369 54.544C448.809 54.7147 446.121 55.4827 443.305 56.848C440.489 58.2133 438.356 60.0053 436.905 62.224ZM497.663 49.424C497.066 49.936 496.468 50.6613 495.871 51.6C495.359 52.5387 495.018 53.4773 494.847 54.416C494.762 55.2693 494.932 56.0373 495.359 56.72C495.786 57.4027 496.639 57.744 497.919 57.744H499.839C501.46 57.744 502.399 58.2133 502.655 59.152C502.996 60.0053 502.442 60.56 500.991 60.816C499.711 61.1573 498.26 61.328 496.639 61.328C495.444 61.328 494.506 61.1147 493.823 60.688C493.14 60.176 492.628 59.5787 492.287 58.896C491.946 58.128 491.732 57.3173 491.647 56.464C491.647 55.5253 491.69 54.5867 491.775 53.648C489.556 55.8667 487.167 58.0427 484.607 60.176C482.132 62.224 479.743 64.2293 477.439 66.192C476.671 66.8747 475.86 67.5147 475.007 68.112C474.154 68.624 473.258 69.0933 472.319 69.52C470.698 70.2027 469.375 70.16 468.351 69.392C467.327 68.624 466.986 67.3867 467.327 65.68C467.498 64.4853 467.754 63.3333 468.095 62.224C468.351 61.0293 468.692 59.8347 469.119 58.64C469.716 56.9333 470.356 55.2693 471.039 53.648C471.722 52.0267 472.447 50.3627 473.215 48.656C473.386 48.3147 473.514 47.9733 473.599 47.632C473.77 47.2907 474.026 47.0347 474.367 46.864C474.794 46.4373 475.178 46.2667 475.519 46.352C475.86 46.4373 476.074 46.7787 476.159 47.376C476.244 47.8027 476.244 48.272 476.159 48.784C476.074 49.2107 475.988 49.6373 475.903 50.064L471.807 61.072C471.551 61.84 471.295 62.6507 471.039 63.504C470.868 64.272 470.698 65.0827 470.527 65.936C470.612 66.0213 470.698 66.1067 470.783 66.192C470.868 66.2773 470.996 66.4053 471.167 66.576C471.679 66.2347 472.191 65.936 472.703 65.68C473.215 65.424 473.684 65.0827 474.111 64.656C475.818 63.2053 477.482 61.7547 479.103 60.304C480.724 58.8533 482.388 57.4027 484.095 55.952C484.692 55.44 485.546 54.6293 486.655 53.52C487.764 52.4107 488.916 51.216 490.111 49.936C491.391 48.656 492.628 47.4187 493.823 46.224C495.103 44.944 496.212 43.8773 497.151 43.024C497.748 42.4267 498.388 42.2133 499.071 42.384C499.754 42.4693 500.266 42.8107 500.607 43.408C501.034 43.92 501.247 44.56 501.247 45.328C501.247 46.096 500.863 46.7787 500.095 47.376L497.663 49.424ZM526.972 59.024C527.399 58.8533 527.783 58.7253 528.124 58.64C528.465 58.4693 528.849 58.2987 529.276 58.128C530.3 57.9573 531.025 58.256 531.452 59.024C531.879 60.048 531.623 60.7733 530.684 61.2C527.527 62.8213 524.241 64.0587 520.828 64.912C517.415 65.7653 514.001 66.2773 510.588 66.448C509.393 66.5333 508.113 66.5333 506.748 66.448C505.468 66.3627 504.273 66.064 503.164 65.552C502.14 65.04 501.372 64.3147 500.86 63.376C500.348 62.352 500.305 60.9867 500.732 59.28C501.329 57.5733 501.884 56.3787 502.396 55.696C502.908 55.0133 503.889 54.288 505.34 53.52C506.876 52.8373 508.455 52.368 510.076 52.112C511.783 51.7707 513.404 51.6 514.94 51.6C516.391 51.7707 517.244 52.496 517.5 53.776C517.756 55.1413 517.287 56.1653 516.092 56.848C515.239 57.36 514.343 57.8293 513.404 58.256C512.465 58.5973 511.484 58.9387 510.46 59.28C509.692 59.4507 508.881 59.5787 508.028 59.664C507.175 59.7493 506.321 59.792 505.468 59.792C504.188 59.792 503.463 60.0907 503.292 60.688C503.207 61.2 503.463 61.7547 504.06 62.352C504.913 63.2053 506.407 63.6747 508.54 63.76C510.673 63.76 512.935 63.5893 515.324 63.248C517.799 62.8213 520.103 62.224 522.236 61.456C524.455 60.688 526.033 59.8773 526.972 59.024ZM514.044 55.312C514.641 54.544 514.641 54.16 514.044 54.16C513.532 54.0747 512.721 54.2027 511.612 54.544C510.588 54.8853 509.393 55.3973 508.028 56.08C506.663 56.7627 505.468 57.4453 504.444 58.128C505.724 58.2987 507.388 58.128 509.436 57.616C511.484 57.0187 513.02 56.2507 514.044 55.312ZM530.923 77.968C533.654 75.152 536.384 72.1653 539.115 69.008C541.931 65.8507 544.448 63.1627 546.667 60.944C548.886 58.64 550.336 57.744 551.019 58.256C551.702 58.768 550.934 60.4747 548.715 63.376C546.582 66.192 544.235 68.7947 541.675 71.184C539.2 73.488 536.726 75.8347 534.251 78.224C533.568 78.9067 532.843 79.504 532.075 80.016C531.307 80.528 530.582 81.04 529.899 81.552C529.558 81.7227 529.174 81.936 528.747 82.192C528.32 82.3627 527.894 82.5333 527.467 82.704C525.846 83.1307 524.566 82.96 523.627 82.192C522.688 81.424 522.134 80.2293 521.963 78.608C521.792 77.2427 521.92 75.92 522.347 74.64C523.03 71.312 524.054 68.1547 525.419 65.168C526.699 62.1813 528.107 59.1947 529.643 56.208C530.155 55.0133 530.752 53.9467 531.435 53.008C531.862 52.24 532.203 51.5147 532.459 50.832C532.715 50.064 532.502 49.3387 531.819 48.656C532.075 48.144 532.288 47.8027 532.459 47.632C534.08 46.9493 535.318 45.9253 536.171 44.56C537.11 43.1947 538.048 41.872 538.987 40.592C541.462 37.0933 543.936 33.6373 546.411 30.224C548.886 26.7253 551.616 23.4827 554.603 20.496C555.627 19.472 556.736 18.4907 557.931 17.552C558.358 16.9547 559.126 16.4427 560.235 16.016C560.832 15.76 561.43 15.5893 562.027 15.504C562.624 15.4187 563.222 15.5893 563.819 16.016C564.416 16.528 564.715 17.1253 564.715 17.808C564.8 18.4053 564.672 19.0027 564.331 19.6C563.904 20.5387 563.435 21.4773 562.923 22.416C562.496 23.2693 561.984 24.1227 561.387 24.976C558.656 28.56 555.712 31.9307 552.555 35.088C549.398 38.16 546.112 41.1893 542.699 44.176C541.675 45.1147 540.694 46.096 539.755 47.12C538.816 48.144 537.92 49.2533 537.067 50.448C535.36 53.52 533.696 56.592 532.075 59.664C530.454 62.6507 529.003 65.7653 527.723 69.008C527.382 70.1173 527.083 71.2267 526.827 72.336C526.486 73.4453 526.187 74.5547 525.931 75.664C525.504 77.1147 525.462 78.1387 525.803 78.736C526.059 79.3333 526.486 79.632 527.083 79.632C527.68 79.632 528.32 79.4613 529.003 79.12C529.771 78.7787 530.411 78.3947 530.923 77.968ZM558.059 22.544C557.291 23.312 556.054 24.592 554.347 26.384C552.726 28.0907 551.062 29.968 549.355 32.016C547.648 34.064 546.112 36.0267 544.747 37.904C543.382 39.7813 542.614 41.1893 542.443 42.128C543.126 41.4453 544.192 40.336 545.643 38.8C547.179 37.264 548.758 35.6 550.379 33.808C552.086 32.016 553.707 30.224 555.243 28.432C556.864 26.64 558.144 25.1467 559.083 23.952C560.022 22.672 560.448 21.8613 560.363 21.52C560.363 21.0933 559.595 21.4347 558.059 22.544Z" fill="#D6B66B"/>
</svg>
