<svg width="120" height="25" viewBox="0 0 120 25" fill="none" xmlns="http://www.w3.org/2000/svg">
<path d="M0.857143 21.6083V2.75115C0.857143 2.29649 1.03776 1.86046 1.35925 1.53897C1.68074 1.21748 2.11677 1.03687 2.57143 1.03687H21.4286C21.8832 1.03687 22.3193 1.21748 22.6408 1.53897C22.9622 1.86046 23.1429 2.29649 23.1429 2.75115V21.6083C23.1429 22.063 22.9622 22.499 22.6408 22.8205C22.3193 23.142 21.8832 23.3226 21.4286 23.3226H16.2857V15.1969H17.5029C17.7802 15.1969 18.0462 15.0867 18.2423 14.8906C18.4384 14.6945 18.5486 14.4285 18.5486 14.1512V12.8312C18.5486 12.5538 18.4384 12.2878 18.2423 12.0917C18.0462 11.8956 17.7802 11.7854 17.5029 11.7854H16.3543V10.174C16.3543 8.73401 17.0057 8.73401 17.6571 8.73401H18.4971C18.6351 8.73969 18.7726 8.715 18.9 8.66168C19.0274 8.60836 19.1415 8.52771 19.2343 8.42544C19.3339 8.33059 19.4128 8.21611 19.4659 8.08923C19.519 7.96235 19.5452 7.82582 19.5429 7.68829V6.41972C19.5474 6.28013 19.5245 6.141 19.4752 6.01029C19.426 5.87959 19.3515 5.75986 19.256 5.65797C19.1604 5.55608 19.0458 5.47401 18.9185 5.41646C18.7912 5.35891 18.6539 5.32701 18.5143 5.32258H16.5429C15.9676 5.30095 15.3946 5.40446 14.8632 5.62593C14.3319 5.84741 13.855 6.18159 13.4654 6.60538C13.0759 7.02918 12.7829 7.53249 12.6069 8.08054C12.4308 8.6286 12.3758 9.20834 12.4457 9.77972V11.7854H11.3486C11.2098 11.7832 11.072 11.8085 10.9431 11.8601C10.8143 11.9116 10.697 11.9883 10.598 12.0856C10.4991 12.1829 10.4205 12.299 10.3669 12.427C10.3133 12.555 10.2857 12.6924 10.2857 12.8312V14.1512C10.2857 14.2899 10.3133 14.4273 10.3669 14.5553C10.4205 14.6833 10.4991 14.7994 10.598 14.8967C10.697 14.994 10.8143 15.0707 10.9431 15.1222C11.072 15.1738 11.2098 15.1991 11.3486 15.1969H12.4457V23.3226H2.57143C2.11677 23.3226 1.68074 23.142 1.35925 22.8205C1.03776 22.499 0.857143 22.063 0.857143 21.6083Z" stroke="white" stroke-linecap="round" stroke-linejoin="round"/>
<path d="M64 7.17969C64 6.91447 64.1054 6.66012 64.2929 6.47258C64.4804 6.28504 64.7348 6.17969 65 6.17969C65.2652 6.17969 65.5196 6.28504 65.7071 6.47258C65.8946 6.66012 66 6.91447 66 7.17969C66 7.4449 65.8946 7.69926 65.7071 7.88679C65.5196 8.07433 65.2652 8.17969 65 8.17969C64.7348 8.17969 64.4804 8.07433 64.2929 7.88679C64.1054 7.69926 64 7.4449 64 7.17969Z" fill="white"/>
<path fill-rule="evenodd" clip-rule="evenodd" d="M60 7.42969C58.7402 7.42969 57.532 7.93013 56.6412 8.82093C55.7504 9.71173 55.25 10.9199 55.25 12.1797C55.25 13.4395 55.7504 14.6476 56.6412 15.5384C57.532 16.4292 58.7402 16.9297 60 16.9297C61.2598 16.9297 62.468 16.4292 63.3588 15.5384C64.2496 14.6476 64.75 13.4395 64.75 12.1797C64.75 10.9199 64.2496 9.71173 63.3588 8.82093C62.468 7.93013 61.2598 7.42969 60 7.42969ZM56.75 12.1797C56.75 11.3177 57.0924 10.4911 57.7019 9.88159C58.3114 9.2721 59.138 8.92969 60 8.92969C60.862 8.92969 61.6886 9.2721 62.2981 9.88159C62.9076 10.4911 63.25 11.3177 63.25 12.1797C63.25 13.0416 62.9076 13.8683 62.2981 14.4778C61.6886 15.0873 60.862 15.4297 60 15.4297C59.138 15.4297 58.3114 15.0873 57.7019 14.4778C57.0924 13.8683 56.75 13.0416 56.75 12.1797Z" fill="white"/>
<path fill-rule="evenodd" clip-rule="evenodd" d="M65.258 3.01272C61.7634 2.62532 58.2366 2.62532 54.742 3.01272C52.73 3.23772 51.105 4.82272 50.869 6.84472C50.4544 10.3893 50.4544 13.9701 50.869 17.5147C51.105 19.5367 52.729 21.1217 54.742 21.3467C58.2367 21.7337 61.7633 21.7337 65.258 21.3467C67.27 21.1217 68.895 19.5367 69.131 17.5147C69.5457 13.9701 69.5457 10.3893 69.131 6.84472C68.895 4.82272 67.271 3.23772 65.258 3.01272ZM54.908 4.50272C58.2923 4.12759 61.7077 4.12759 65.092 4.50272C66.422 4.65272 67.487 5.70172 67.642 7.01972C68.043 10.448 68.043 13.9114 67.642 17.3397C67.5618 17.9848 67.2665 18.5839 66.8038 19.0405C66.3411 19.497 65.7381 19.7842 65.092 19.8557C61.7077 20.2309 58.2923 20.2309 54.908 19.8557C54.2619 19.7842 53.6589 19.497 53.1962 19.0405C52.7335 18.5839 52.4382 17.9848 52.358 17.3397C51.9571 13.9114 51.9571 10.448 52.358 7.01972C52.4382 6.37468 52.7335 5.7755 53.1962 5.31897C53.6589 4.86244 54.2619 4.57423 54.908 4.50272Z" fill="white"/>
<path d="M117 4.67969H99C98.6022 4.67969 98.2206 4.83772 97.9393 5.11903C97.658 5.40033 97.5 5.78186 97.5 6.17969V18.1797C97.5 18.5775 97.658 18.959 97.9393 19.2403C98.2206 19.5217 98.6022 19.6797 99 19.6797H117C117.398 19.6797 117.779 19.5217 118.061 19.2403C118.342 18.959 118.5 18.5775 118.5 18.1797V6.17969C118.5 5.78186 118.342 5.40033 118.061 5.11903C117.779 4.83772 117.398 4.67969 117 4.67969ZM115.35 6.17969L108 11.2647L100.65 6.17969H115.35ZM99 18.1797V6.86219L107.573 12.7947C107.698 12.8818 107.847 12.9285 108 12.9285C108.153 12.9285 108.302 12.8818 108.427 12.7947L117 6.86219V18.1797H99Z" fill="#FAF9F5"/>
</svg>
